<svg width="32" height="32" viewBox="0 0 32 32" fill="none" xmlns="http://www.w3.org/2000/svg">
<path d="M28.985 21.885C28.7621 23.5788 27.9303 25.1335 26.6449 26.2588C25.3595 27.3841 23.7084 28.0031 22 28C12.075 28 4 19.925 4 10C3.99694 8.29161 4.61586 6.64053 5.74117 5.35512C6.86647 4.06971 8.42121 3.23788 10.115 3.015C10.5433 2.9627 10.9771 3.05033 11.3515 3.2648C11.7259 3.47927 12.0209 3.80908 12.1925 4.205L14.8325 10.0988V10.1138C14.9639 10.4168 15.0181 10.7477 14.9904 11.0768C14.9627 11.406 14.8539 11.7232 14.6737 12C14.6512 12.0337 14.6275 12.065 14.6025 12.0962L12 15.1812C12.9362 17.0837 14.9263 19.0563 16.8538 19.995L19.8962 17.4062C19.9261 17.3811 19.9574 17.3578 19.99 17.3363C20.2666 17.1518 20.5849 17.0391 20.916 17.0086C21.2471 16.978 21.5805 17.0305 21.8862 17.1612L21.9025 17.1688L27.7913 19.8075C28.1879 19.9785 28.5185 20.2732 28.7337 20.6477C28.9488 21.0222 29.037 21.4562 28.985 21.885Z" fill="white"/>
</svg>
