<svg width="26" height="27" viewBox="0 0 26 27" fill="none" xmlns="http://www.w3.org/2000/svg">
<g clip-path="url(#clip0_4_592)">
<path d="M21.125 4.23621H4.875C4.44402 4.23621 4.0307 4.40741 3.72595 4.71216C3.4212 5.0169 3.25 5.43023 3.25 5.86121V11.5487C3.25 16.9031 5.84188 20.148 8.01633 21.9274C10.3584 23.8428 12.6882 24.4939 12.7898 24.5203C12.9294 24.5583 13.0767 24.5583 13.2163 24.5203C13.3179 24.4939 15.6447 23.8428 17.9898 21.9274C20.1581 20.148 22.75 16.9031 22.75 11.5487V5.86121C22.75 5.43023 22.5788 5.0169 22.274 4.71216C21.9693 4.40741 21.556 4.23621 21.125 4.23621ZM16.25 13.9862H13.8125V16.4237C13.8125 16.6392 13.7269 16.8459 13.5745 16.9982C13.4222 17.1506 13.2155 17.2362 13 17.2362C12.7845 17.2362 12.5778 17.1506 12.4255 16.9982C12.2731 16.8459 12.1875 16.6392 12.1875 16.4237V13.9862H9.75C9.53451 13.9862 9.32785 13.9006 9.17548 13.7482C9.0231 13.5959 8.9375 13.3892 8.9375 13.1737C8.9375 12.9582 9.0231 12.7516 9.17548 12.5992C9.32785 12.4468 9.53451 12.3612 9.75 12.3612H12.1875V9.92371C12.1875 9.70822 12.2731 9.50156 12.4255 9.34918C12.5778 9.19681 12.7845 9.11121 13 9.11121C13.2155 9.11121 13.4222 9.19681 13.5745 9.34918C13.7269 9.50156 13.8125 9.70822 13.8125 9.92371V12.3612H16.25C16.4655 12.3612 16.6722 12.4468 16.8245 12.5992C16.9769 12.7516 17.0625 12.9582 17.0625 13.1737C17.0625 13.3892 16.9769 13.5959 16.8245 13.7482C16.6722 13.9006 16.4655 13.9862 16.25 13.9862Z" fill="#F7D403"/>
</g>
<defs>
<clipPath id="clip0_4_592">
<rect width="26" height="26" fill="white" transform="translate(0 0.173706)"/>
</clipPath>
</defs>
</svg>
