<svg width="26" height="27" viewBox="0 0 26 27" fill="none" xmlns="http://www.w3.org/2000/svg">
<g clip-path="url(#clip0_4_588)">
<path d="M6.5 24.1425C6.5 24.3835 6.42852 24.6191 6.2946 24.8196C6.16069 25.02 5.97034 25.1762 5.74765 25.2684C5.52495 25.3607 5.2799 25.3848 5.04348 25.3378C4.80707 25.2908 4.58991 25.1747 4.41946 25.0042C4.24902 24.8338 4.13294 24.6166 4.08592 24.3802C4.03889 24.1438 4.06303 23.8988 4.15527 23.6761C4.24752 23.4534 4.40373 23.263 4.60415 23.1291C4.80457 22.9952 5.0402 22.9237 5.28125 22.9237C5.60448 22.9237 5.91448 23.0521 6.14304 23.2807C6.3716 23.5092 6.5 23.8192 6.5 24.1425ZM8.53125 19.6737C8.29021 19.6737 8.05457 19.7452 7.85415 19.8791C7.65373 20.013 7.49752 20.2034 7.40527 20.4261C7.31303 20.6488 7.28889 20.8938 7.33592 21.1302C7.38294 21.3666 7.49902 21.5838 7.66946 21.7542C7.83991 21.9247 8.05707 22.0408 8.29348 22.0878C8.5299 22.1348 8.77495 22.1107 8.99765 22.0184C9.22034 21.9262 9.41069 21.77 9.5446 21.5696C9.67852 21.3691 9.75 21.1335 9.75 20.8925C9.75 20.5692 9.6216 20.2592 9.39304 20.0307C9.16448 19.8021 8.85448 19.6737 8.53125 19.6737ZM2.03125 19.6737C1.7902 19.6737 1.55457 19.7452 1.35415 19.8791C1.15373 20.013 0.997517 20.2034 0.905272 20.4261C0.813028 20.6488 0.788893 20.8938 0.835918 21.1302C0.882944 21.3666 0.999019 21.5838 1.16946 21.7542C1.33991 21.9247 1.55707 22.0408 1.79348 22.0878C2.0299 22.1348 2.27495 22.1107 2.49765 22.0184C2.72034 21.9262 2.91069 21.77 3.0446 21.5696C3.17852 21.3691 3.25 21.1335 3.25 20.8925C3.25 20.5692 3.1216 20.2592 2.89304 20.0307C2.66448 19.8021 2.35448 19.6737 2.03125 19.6737ZM5.28125 16.4237C5.0402 16.4237 4.80457 16.4952 4.60415 16.6291C4.40373 16.763 4.24752 16.9534 4.15527 17.1761C4.06303 17.3988 4.03889 17.6438 4.08592 17.8802C4.13294 18.1166 4.24902 18.3338 4.41946 18.5042C4.58991 18.6747 4.80707 18.7908 5.04348 18.8378C5.2799 18.8848 5.52495 18.8607 5.74765 18.7684C5.97034 18.6762 6.16069 18.52 6.2946 18.3196C6.42852 18.1191 6.5 17.8835 6.5 17.6425C6.5 17.3192 6.3716 17.0092 6.14304 16.7807C5.91448 16.5521 5.60448 16.4237 5.28125 16.4237ZM25.1875 3.42371H21.9375C21.8308 3.42362 21.7251 3.44457 21.6264 3.48535C21.5278 3.52612 21.4382 3.58593 21.3627 3.66136L18.2955 6.72855L5.42141 8.92738C5.12676 8.97631 4.8513 9.1055 4.62528 9.30077C4.39927 9.49603 4.23144 9.74981 4.14024 10.0342C4.04903 10.3186 4.03798 10.6227 4.1083 10.913C4.17862 11.2033 4.32758 11.4686 4.53883 11.6797L14.492 21.6328C14.7029 21.8438 14.9679 21.9925 15.2578 22.0628C15.5478 22.1332 15.8515 22.1223 16.1356 22.0315C16.4198 21.9406 16.6735 21.7733 16.8688 21.5478C17.0642 21.3224 17.1938 21.0475 17.2433 20.7533L19.4452 7.87824L22.2737 5.04871H25.1875C25.403 5.04871 25.6097 4.9631 25.762 4.81073C25.9144 4.65836 26 4.45169 26 4.23621C26 4.02072 25.9144 3.81406 25.762 3.66168C25.6097 3.50931 25.403 3.42371 25.1875 3.42371Z" fill="#F7D403"/>
</g>
<defs>
<clipPath id="clip0_4_588">
<rect width="26" height="26" fill="white" transform="translate(0 0.173706)"/>
</clipPath>
</defs>
</svg>
