<svg width="26" height="27" viewBox="0 0 26 27" fill="none" xmlns="http://www.w3.org/2000/svg">
<g clip-path="url(#clip0_4_580)">
<path d="M20.3125 8.29871C20.528 8.29871 20.7347 8.2131 20.887 8.06073C21.0394 7.90836 21.125 7.70169 21.125 7.48621C21.1234 5.97828 20.5237 4.53258 19.4574 3.46632C18.3911 2.40005 16.9454 1.80032 15.4375 1.79871H8.125C7.69402 1.79871 7.2807 1.96991 6.97595 2.27466C6.67121 2.5794 6.5 2.99273 6.5 3.42371V8.29871C6.5 8.94517 6.24319 9.56516 5.78607 10.0223C5.32895 10.4794 4.70897 10.7362 4.0625 10.7362C3.84701 10.7362 3.64035 10.8218 3.48798 10.9742C3.3356 11.1266 3.25 11.3332 3.25 11.5487C3.25 11.7642 3.3356 11.9709 3.48798 12.1232C3.64035 12.2756 3.84701 12.3612 4.0625 12.3612C5.13994 12.3612 6.17325 11.9332 6.93512 11.1713C7.69699 10.4095 8.125 9.37615 8.125 8.29871H11.375V10.7992C11.376 11.1648 11.2943 11.526 11.1361 11.8556C10.9778 12.1852 10.747 12.4747 10.4609 12.7025L8.83594 14.0014C8.35931 14.3811 7.9747 14.8636 7.71089 15.4128C7.44707 15.9621 7.31088 16.5639 7.3125 17.1732V22.9237C7.3125 23.3547 7.48371 23.768 7.78845 24.0728C8.0932 24.3775 8.50652 24.5487 8.9375 24.5487H19.5C19.931 24.5487 20.3443 24.3775 20.649 24.0728C20.9538 23.768 21.125 23.3547 21.125 22.9237V21.6511C21.1263 16.9793 19.938 12.3841 17.6719 8.29871H20.3125ZM8.125 3.42371H15.4375C16.3736 3.42504 17.2807 3.74899 18.0059 4.34097C18.731 4.93296 19.23 5.7568 19.4187 6.67371H8.125V3.42371Z" fill="#F7D403"/>
</g>
<defs>
<clipPath id="clip0_4_580">
<rect width="26" height="26" fill="white" transform="translate(0 0.173706)"/>
</clipPath>
</defs>
</svg>
