<svg width="26" height="27" viewBox="0 0 26 27" fill="none" xmlns="http://www.w3.org/2000/svg">
<g clip-path="url(#clip0_4_584)">
<path d="M21.9375 6.67371H5.6875C5.47201 6.67371 5.26535 6.5881 5.11298 6.43573C4.9606 6.28336 4.875 6.07669 4.875 5.86121C4.875 5.64572 4.9606 5.43906 5.11298 5.28668C5.26535 5.13431 5.47201 5.04871 5.6875 5.04871H19.5C19.7155 5.04871 19.9222 4.9631 20.0745 4.81073C20.2269 4.65836 20.3125 4.45169 20.3125 4.23621C20.3125 4.02072 20.2269 3.81406 20.0745 3.66168C19.9222 3.50931 19.7155 3.42371 19.5 3.42371H5.6875C5.04103 3.42371 4.42105 3.68051 3.96393 4.13763C3.50681 4.59475 3.25 5.21474 3.25 5.86121V18.8612C3.25 19.5077 3.50681 20.1277 3.96393 20.5848C4.42105 21.0419 5.04103 21.2987 5.6875 21.2987H21.9375C22.3685 21.2987 22.7818 21.1275 23.0865 20.8228C23.3913 20.518 23.5625 20.1047 23.5625 19.6737V8.29871C23.5625 7.86773 23.3913 7.4544 23.0865 7.14966C22.7818 6.84491 22.3685 6.67371 21.9375 6.67371ZM18.2812 14.7987C18.0402 14.7987 17.8046 14.7272 17.6041 14.5933C17.4037 14.4594 17.2475 14.269 17.1553 14.0464C17.063 13.8237 17.0389 13.5786 17.0859 13.3422C17.1329 13.1058 17.249 12.8886 17.4195 12.7182C17.5899 12.5477 17.8071 12.4316 18.0435 12.3846C18.2799 12.3376 18.5249 12.3617 18.7476 12.454C18.9703 12.5462 19.1607 12.7024 19.2946 12.9029C19.4285 13.1033 19.5 13.3389 19.5 13.58C19.5 13.9032 19.3716 14.2132 19.143 14.4417C18.9145 14.6703 18.6045 14.7987 18.2812 14.7987Z" fill="#F7D403"/>
</g>
<defs>
<clipPath id="clip0_4_584">
<rect width="26" height="26" fill="white" transform="translate(0 0.173706)"/>
</clipPath>
</defs>
</svg>
