<svg width="152" height="19" viewBox="0 0 152 19" fill="none" xmlns="http://www.w3.org/2000/svg">
<path d="M0 18.06V1.26H5.592C7.304 1.26 8.812 1.616 10.116 2.328C11.428 3.04 12.448 4.028 13.176 5.292C13.912 6.556 14.28 8.016 14.28 9.672C14.28 10.904 14.068 12.036 13.644 13.068C13.228 14.1 12.636 14.988 11.868 15.732C11.1 16.468 10.184 17.04 9.12 17.448C8.056 17.856 6.88 18.06 5.592 18.06H0ZM3.552 14.748H5.34C6.124 14.748 6.832 14.64 7.464 14.424C8.104 14.2 8.656 13.868 9.12 13.428C9.584 12.988 9.94 12.456 10.188 11.832C10.436 11.2 10.56 10.48 10.56 9.672C10.56 8.584 10.34 7.66 9.9 6.9C9.468 6.14 8.86 5.56 8.076 5.16C7.292 4.76 6.38 4.56 5.34 4.56H3.552V14.748Z" fill="url(#paint0_linear_2003_13)"/>
<path d="M22.4558 18.42C21.1518 18.42 19.9958 18.128 18.9878 17.544C17.9798 16.96 17.1877 16.184 16.6117 15.216C16.0437 14.24 15.7598 13.168 15.7598 12C15.7598 11.144 15.9238 10.332 16.2518 9.564C16.5798 8.788 17.0438 8.104 17.6438 7.512C18.2438 6.912 18.9517 6.44 19.7677 6.096C20.5837 5.752 21.4798 5.58 22.4558 5.58C23.7598 5.58 24.9118 5.872 25.9118 6.456C26.9198 7.04 27.7077 7.82 28.2757 8.796C28.8517 9.764 29.1398 10.832 29.1398 12C29.1398 12.848 28.9757 13.66 28.6478 14.436C28.3198 15.212 27.8558 15.9 27.2558 16.5C26.6637 17.092 25.9598 17.56 25.1438 17.904C24.3278 18.248 23.4318 18.42 22.4558 18.42ZM22.4558 15.384C23.0718 15.384 23.6238 15.248 24.1118 14.976C24.5998 14.696 24.9837 14.304 25.2638 13.8C25.5438 13.288 25.6838 12.688 25.6838 12C25.6838 11.304 25.5438 10.704 25.2638 10.2C24.9918 9.696 24.6118 9.308 24.1238 9.036C23.6357 8.756 23.0798 8.616 22.4558 8.616C21.8318 8.616 21.2718 8.756 20.7758 9.036C20.2878 9.308 19.9038 9.696 19.6238 10.2C19.3518 10.704 19.2157 11.304 19.2157 12C19.2157 12.696 19.3557 13.296 19.6357 13.8C19.9158 14.304 20.2998 14.696 20.7878 14.976C21.2758 15.248 21.8318 15.384 22.4558 15.384Z" fill="url(#paint1_linear_2003_13)"/>
<path d="M31.3048 18.06V5.94H34.8088V7.308C35.2728 6.7 35.8208 6.26 36.4528 5.988C37.0928 5.716 37.7608 5.58 38.4568 5.58C39.5848 5.58 40.5128 5.804 41.2408 6.252C41.9768 6.692 42.5208 7.264 42.8728 7.968C43.2328 8.672 43.4128 9.412 43.4128 10.188V18.06H39.9088V11.28C39.9088 10.512 39.6928 9.9 39.2608 9.444C38.8368 8.988 38.2208 8.76 37.4128 8.76C36.9008 8.76 36.4488 8.876 36.0568 9.108C35.6648 9.332 35.3568 9.648 35.1328 10.056C34.9168 10.464 34.8088 10.936 34.8088 11.472V18.06H31.3048Z" fill="url(#paint2_linear_2003_13)"/>
<path d="M55.2437 18.06V4.5H50.6837V1.26H63.3797V4.5H58.8197V18.06H55.2437Z" fill="url(#paint3_linear_2003_13)"/>
<path d="M69.777 18.42C68.473 18.42 67.317 18.128 66.309 17.544C65.301 16.96 64.509 16.184 63.933 15.216C63.365 14.24 63.081 13.168 63.081 12C63.081 11.144 63.245 10.332 63.573 9.564C63.901 8.788 64.365 8.104 64.965 7.512C65.565 6.912 66.273 6.44 67.089 6.096C67.905 5.752 68.801 5.58 69.777 5.58C71.081 5.58 72.233 5.872 73.233 6.456C74.241 7.04 75.029 7.82 75.597 8.796C76.173 9.764 76.461 10.832 76.461 12C76.461 12.848 76.297 13.66 75.969 14.436C75.641 15.212 75.177 15.9 74.577 16.5C73.985 17.092 73.281 17.56 72.465 17.904C71.649 18.248 70.753 18.42 69.777 18.42ZM69.777 15.384C70.393 15.384 70.945 15.248 71.433 14.976C71.921 14.696 72.305 14.304 72.585 13.8C72.865 13.288 73.005 12.688 73.005 12C73.005 11.304 72.865 10.704 72.585 10.2C72.313 9.696 71.933 9.308 71.445 9.036C70.957 8.756 70.401 8.616 69.777 8.616C69.153 8.616 68.593 8.756 68.097 9.036C67.609 9.308 67.225 9.696 66.945 10.2C66.673 10.704 66.537 11.304 66.537 12C66.537 12.696 66.677 13.296 66.957 13.8C67.237 14.304 67.621 14.696 68.109 14.976C68.597 15.248 69.153 15.384 69.777 15.384Z" fill="url(#paint4_linear_2003_13)"/>
<path d="M78.6261 18.06V5.94H82.1301V7.308C82.5941 6.7 83.1421 6.26 83.7741 5.988C84.4141 5.716 85.0821 5.58 85.7781 5.58C86.9061 5.58 87.8341 5.804 88.5621 6.252C89.2981 6.692 89.8421 7.264 90.1941 7.968C90.5541 8.672 90.7341 9.412 90.7341 10.188V18.06H87.2301V11.28C87.2301 10.512 87.0141 9.9 86.5821 9.444C86.1581 8.988 85.5421 8.76 84.7341 8.76C84.2221 8.76 83.7701 8.876 83.3781 9.108C82.9861 9.332 82.6781 9.648 82.4541 10.056C82.2381 10.464 82.1301 10.936 82.1301 11.472V18.06H78.6261Z" fill="url(#paint5_linear_2003_13)"/>
<path d="M93.7845 18.06V5.94H97.2885V18.06H93.7845ZM95.5365 4.02C94.9525 4.02 94.4485 3.84 94.0245 3.48C93.6005 3.112 93.3885 2.624 93.3885 2.016C93.3885 1.4 93.6005 0.912001 94.0245 0.552C94.4485 0.184 94.9525 0 95.5365 0C96.1205 0 96.6245 0.184 97.0485 0.552C97.4725 0.912001 97.6845 1.4 97.6845 2.016C97.6845 2.624 97.4725 3.112 97.0485 3.48C96.6245 3.84 96.1205 4.02 95.5365 4.02Z" fill="url(#paint6_linear_2003_13)"/>
<path d="M100.459 18.06V5.94H103.963V7.44C104.355 6.768 104.859 6.288 105.475 6C106.091 5.712 106.763 5.568 107.491 5.568C107.747 5.568 107.983 5.584 108.199 5.616C108.415 5.64 108.627 5.672 108.835 5.712L108.403 9.324C108.147 9.228 107.875 9.156 107.587 9.108C107.299 9.052 107.015 9.024 106.735 9.024C105.927 9.024 105.263 9.26 104.743 9.732C104.223 10.204 103.963 10.876 103.963 11.748V18.06H100.459Z" fill="url(#paint7_linear_2003_13)"/>
<path d="M116.067 18.42C114.763 18.42 113.607 18.128 112.599 17.544C111.591 16.96 110.799 16.184 110.223 15.216C109.655 14.24 109.371 13.168 109.371 12C109.371 11.144 109.535 10.332 109.863 9.564C110.191 8.788 110.655 8.104 111.255 7.512C111.855 6.912 112.563 6.44 113.379 6.096C114.195 5.752 115.091 5.58 116.067 5.58C117.371 5.58 118.523 5.872 119.523 6.456C120.531 7.04 121.319 7.82 121.887 8.796C122.463 9.764 122.751 10.832 122.751 12C122.751 12.848 122.587 13.66 122.259 14.436C121.931 15.212 121.467 15.9 120.867 16.5C120.275 17.092 119.571 17.56 118.755 17.904C117.939 18.248 117.043 18.42 116.067 18.42ZM116.067 15.384C116.683 15.384 117.235 15.248 117.723 14.976C118.211 14.696 118.595 14.304 118.875 13.8C119.155 13.288 119.295 12.688 119.295 12C119.295 11.304 119.155 10.704 118.875 10.2C118.603 9.696 118.223 9.308 117.735 9.036C117.247 8.756 116.691 8.616 116.067 8.616C115.443 8.616 114.883 8.756 114.387 9.036C113.899 9.308 113.515 9.696 113.235 10.2C112.963 10.704 112.827 11.304 112.827 12C112.827 12.696 112.967 13.296 113.247 13.8C113.527 14.304 113.911 14.696 114.399 14.976C114.887 15.248 115.443 15.384 116.067 15.384Z" fill="url(#paint8_linear_2003_13)"/>
<path d="M124.916 18.06V5.94H128.42V7.308C128.884 6.7 129.432 6.26 130.064 5.988C130.704 5.716 131.372 5.58 132.068 5.58C133.196 5.58 134.124 5.804 134.852 6.252C135.588 6.692 136.132 7.264 136.484 7.968C136.844 8.672 137.024 9.412 137.024 10.188V18.06H133.52V11.28C133.52 10.512 133.304 9.9 132.872 9.444C132.448 8.988 131.832 8.76 131.024 8.76C130.512 8.76 130.06 8.876 129.668 9.108C129.276 9.332 128.968 9.648 128.744 10.056C128.528 10.464 128.42 10.936 128.42 11.472V18.06H124.916Z" fill="url(#paint9_linear_2003_13)"/>
<path d="M145.738 18.42C144.418 18.42 143.258 18.152 142.258 17.616C141.258 17.08 140.479 16.332 139.919 15.372C139.359 14.412 139.079 13.288 139.079 12C139.079 11.064 139.238 10.204 139.559 9.42C139.887 8.636 140.342 7.96 140.926 7.392C141.518 6.816 142.21 6.372 143.003 6.06C143.803 5.74 144.678 5.58 145.63 5.58C146.678 5.58 147.607 5.764 148.415 6.132C149.23 6.5 149.907 7.016 150.443 7.68C150.979 8.336 151.35 9.108 151.559 9.996C151.775 10.884 151.794 11.848 151.618 12.888H142.331C142.331 13.448 142.475 13.936 142.762 14.352C143.059 14.768 143.471 15.096 143.999 15.336C144.535 15.568 145.158 15.684 145.87 15.684C146.574 15.684 147.247 15.588 147.887 15.396C148.527 15.204 149.131 14.912 149.699 14.52L150.863 16.92C150.479 17.216 149.999 17.48 149.423 17.712C148.846 17.936 148.234 18.108 147.587 18.228C146.947 18.356 146.33 18.42 145.738 18.42ZM142.535 10.476H148.258C148.234 9.764 147.982 9.2 147.503 8.784C147.031 8.368 146.379 8.16 145.547 8.16C144.715 8.16 144.023 8.368 143.471 8.784C142.926 9.2 142.615 9.764 142.535 10.476Z" fill="url(#paint10_linear_2003_13)"/>
<defs>
<linearGradient id="paint0_linear_2003_13" x1="-2.052" y1="10.06" x2="152.948" y2="10.06" gradientUnits="userSpaceOnUse">
<stop stop-color="#B59B00"/>
<stop offset="1" stop-color="#F7D403"/>
</linearGradient>
<linearGradient id="paint1_linear_2003_13" x1="-2.052" y1="10.06" x2="152.948" y2="10.06" gradientUnits="userSpaceOnUse">
<stop stop-color="#B59B00"/>
<stop offset="1" stop-color="#F7D403"/>
</linearGradient>
<linearGradient id="paint2_linear_2003_13" x1="-2.052" y1="10.06" x2="152.948" y2="10.06" gradientUnits="userSpaceOnUse">
<stop stop-color="#B59B00"/>
<stop offset="1" stop-color="#F7D403"/>
</linearGradient>
<linearGradient id="paint3_linear_2003_13" x1="-2.052" y1="10.06" x2="152.948" y2="10.06" gradientUnits="userSpaceOnUse">
<stop stop-color="#B59B00"/>
<stop offset="1" stop-color="#F7D403"/>
</linearGradient>
<linearGradient id="paint4_linear_2003_13" x1="-2.052" y1="10.06" x2="152.948" y2="10.06" gradientUnits="userSpaceOnUse">
<stop stop-color="#B59B00"/>
<stop offset="1" stop-color="#F7D403"/>
</linearGradient>
<linearGradient id="paint5_linear_2003_13" x1="-2.052" y1="10.06" x2="152.948" y2="10.06" gradientUnits="userSpaceOnUse">
<stop stop-color="#B59B00"/>
<stop offset="1" stop-color="#F7D403"/>
</linearGradient>
<linearGradient id="paint6_linear_2003_13" x1="-2.052" y1="10.06" x2="152.948" y2="10.06" gradientUnits="userSpaceOnUse">
<stop stop-color="#B59B00"/>
<stop offset="1" stop-color="#F7D403"/>
</linearGradient>
<linearGradient id="paint7_linear_2003_13" x1="-2.052" y1="10.06" x2="152.948" y2="10.06" gradientUnits="userSpaceOnUse">
<stop stop-color="#B59B00"/>
<stop offset="1" stop-color="#F7D403"/>
</linearGradient>
<linearGradient id="paint8_linear_2003_13" x1="-2.052" y1="10.06" x2="152.948" y2="10.06" gradientUnits="userSpaceOnUse">
<stop stop-color="#B59B00"/>
<stop offset="1" stop-color="#F7D403"/>
</linearGradient>
<linearGradient id="paint9_linear_2003_13" x1="-2.052" y1="10.06" x2="152.948" y2="10.06" gradientUnits="userSpaceOnUse">
<stop stop-color="#B59B00"/>
<stop offset="1" stop-color="#F7D403"/>
</linearGradient>
<linearGradient id="paint10_linear_2003_13" x1="-2.052" y1="10.06" x2="152.948" y2="10.06" gradientUnits="userSpaceOnUse">
<stop stop-color="#B59B00"/>
<stop offset="1" stop-color="#F7D403"/>
</linearGradient>
</defs>
</svg>
